<?xml version="1.0" standalone="no"?>
<!DOCTYPE svg PUBLIC "-//W3C//DTD SVG 20010904//EN"
 "http://www.w3.org/TR/2001/REC-SVG-20010904/DTD/svg10.dtd">
<svg version="1.0" xmlns="http://www.w3.org/2000/svg"
 width="420.000000pt" height="420.000000pt" viewBox="0 0 420.000000 420.000000"
 preserveAspectRatio="xMidYMid meet">
<metadata>
Created by potrace 1.14, written by Peter Selinger 2001-2017
</metadata>
<g transform="translate(0.000000,420.000000) scale(0.100000,-0.100000)"
fill="#000000" stroke="none">
<path d="M60 3998 c0 -112 5 -248 10 -303 6 -55 13 -271 15 -480 3 -209 9
-398 15 -420 5 -22 10 -188 10 -370 0 -242 4 -354 15 -420 11 -68 15 -180 15
-455 0 -234 4 -378 11 -400 7 -22 12 -173 13 -400 2 -201 4 -452 4 -557 l2
-193 150 0 150 0 0 165 c0 90 -5 187 -11 215 -6 27 -15 173 -19 323 -5 149
-14 421 -19 602 -6 182 -15 349 -21 372 -5 23 -10 175 -10 340 0 166 -5 316
-11 338 -5 22 -12 195 -15 385 -3 190 -10 361 -16 380 -6 19 -12 172 -14 340
-3 168 -9 324 -14 347 -6 23 -10 121 -10 217 l0 176 -125 0 -125 0 0 -202z"/>
<path d="M840 3968 c1 -164 5 -252 15 -298 11 -48 14 -142 15 -361 0 -211 4
-320 14 -375 9 -52 14 -150 14 -282 0 -111 5 -230 11 -265 11 -59 24 -477 39
-1217 4 -192 11 -341 17 -350 5 -8 13 -150 18 -320 4 -168 10 -349 13 -402 l5
-98 115 0 114 0 0 150 c0 82 -4 171 -9 197 -5 26 -12 200 -15 385 -3 186 -10
375 -16 420 -12 103 -30 740 -38 1448 -4 328 -11 541 -17 550 -6 9 -10 130
-11 305 0 160 -1 392 -2 518 l-2 227 -140 0 -140 0 0 -232z"/>
<path d="M1574 3908 c3 -161 10 -329 16 -373 5 -44 9 -190 9 -326 1 -135 6
-303 11 -375 12 -143 26 -508 39 -977 5 -169 12 -329 16 -355 4 -26 11 -191
16 -367 14 -589 30 -989 41 -1062 l11 -73 158 0 159 0 0 69 c0 38 -5 103 -10
144 -6 41 -15 218 -20 393 -23 801 -30 983 -40 1044 -5 36 -12 196 -15 355 -2
160 -9 308 -15 330 -5 22 -10 137 -10 255 0 118 -5 260 -10 315 -10 88 -23
486 -36 1098 l-5 197 -161 0 -161 0 7 -292z"/>
<path d="M2786 4160 c-11 -73 -8 -812 5 -850 7 -24 10 -174 9 -470 -1 -362 1
-445 14 -494 12 -46 16 -127 17 -394 0 -213 4 -344 11 -361 7 -17 10 -140 9
-359 -2 -203 1 -345 8 -365 5 -17 12 -165 15 -327 3 -162 10 -313 15 -335 6
-22 11 -77 11 -122 l0 -83 101 0 101 0 -5 283 c-3 155 -10 300 -16 322 -6 24
-11 145 -11 302 0 189 -4 279 -14 325 -11 46 -16 167 -19 448 -3 241 -9 396
-16 415 -7 19 -12 156 -14 360 -3 233 -7 339 -16 360 -17 39 -20 138 -21 567
-1 227 -5 369 -12 390 -10 30 -29 302 -28 391 l0 37 -68 0 -69 0 -7 -40z"/>
<path d="M3674 3733 c8 -830 22 -1628 28 -1638 3 -6 9 -215 12 -465 4 -250 11
-482 16 -515 5 -33 11 -199 15 -370 3 -170 9 -328 15 -350 5 -22 10 -120 10
-217 l0 -178 140 0 140 0 0 282 c0 155 -5 318 -10 362 -10 78 -20 315 -40 961
-5 165 -14 336 -19 380 -6 44 -13 244 -15 445 -2 220 -8 381 -15 405 -7 26
-11 204 -11 515 0 380 -3 491 -15 553 -8 43 -15 128 -15 188 l0 109 -120 0
-120 0 4 -467z"/>
</g>
</svg>
